<svg width="30" height="22" viewBox="0 0 30 22" fill="none" xmlns="http://www.w3.org/2000/svg">
<path d="M28.125 14.8125H23.3848C23.4194 14.5012 23.437 14.1882 23.4375 13.875C23.4375 11.6372 22.5486 9.49112 20.9662 7.90878C19.3839 6.32644 17.2378 5.43749 15 5.43749C12.7622 5.43749 10.6161 6.32644 9.03379 7.90878C7.45145 9.49112 6.5625 11.6372 6.5625 13.875C6.56303 14.1882 6.58063 14.5012 6.61523 14.8125H1.875C1.62636 14.8125 1.3879 14.9113 1.21209 15.0871C1.03627 15.2629 0.9375 15.5014 0.9375 15.75C0.9375 15.9986 1.03627 16.2371 1.21209 16.4129C1.3879 16.5887 1.62636 16.6875 1.875 16.6875H28.125C28.3736 16.6875 28.6121 16.5887 28.7879 16.4129C28.9637 16.2371 29.0625 15.9986 29.0625 15.75C29.0625 15.5014 28.9637 15.2629 28.7879 15.0871C28.6121 14.9113 28.3736 14.8125 28.125 14.8125ZM8.4375 13.875C8.43578 12.9725 8.62021 12.0794 8.97926 11.2515C9.33832 10.4235 9.86428 9.67853 10.5243 9.06305C11.1843 8.44756 11.9641 7.97482 12.8151 7.67436C13.6661 7.3739 14.5699 7.25219 15.47 7.31683C16.3701 7.38146 17.2473 7.63106 18.0466 8.05002C18.8459 8.46898 19.5502 9.04829 20.1155 9.75176C20.6808 10.4552 21.0949 11.2677 21.332 12.1385C21.5691 13.0092 21.624 13.9195 21.4934 14.8125H8.50664C8.46126 14.502 8.43816 14.1887 8.4375 13.875ZM25.3125 20.4375C25.3125 20.6861 25.2137 20.9246 25.0379 21.1004C24.8621 21.2762 24.6236 21.375 24.375 21.375H5.625C5.37636 21.375 5.1379 21.2762 4.96209 21.1004C4.78627 20.9246 4.6875 20.6861 4.6875 20.4375C4.6875 20.1889 4.78627 19.9504 4.96209 19.7746C5.1379 19.5988 5.37636 19.5 5.625 19.5H24.375C24.6236 19.5 24.8621 19.5988 25.0379 19.7746C25.2137 19.9504 25.3125 20.1889 25.3125 20.4375ZM8.53594 2.10702C8.42467 1.88449 8.40636 1.62687 8.48504 1.39084C8.56372 1.15481 8.73294 0.959695 8.95547 0.848428C9.178 0.737162 9.43562 0.718853 9.67165 0.797531C9.90769 0.876208 10.1028 1.04543 10.2141 1.26796L11.1516 3.14296C11.2067 3.25315 11.2395 3.37311 11.2482 3.49599C11.257 3.61887 11.2414 3.74227 11.2025 3.85914C11.1635 3.97602 11.1019 4.08407 11.0212 4.17714C10.9405 4.2702 10.8422 4.34646 10.732 4.40155C10.6218 4.45665 10.5019 4.4895 10.379 4.49823C10.2561 4.50696 10.1327 4.49141 10.0158 4.45245C9.89898 4.41349 9.79092 4.3519 9.69785 4.27118C9.60479 4.19047 9.52853 4.09221 9.47344 3.98202L8.53594 2.10702ZM1.97344 7.83046C2.02857 7.72032 2.10487 7.62212 2.19798 7.54148C2.29108 7.46084 2.39916 7.39934 2.51605 7.36048C2.63293 7.32163 2.75632 7.30619 2.87917 7.31505C3.00203 7.32391 3.12193 7.35688 3.23203 7.4121L5.10703 8.3496C5.32941 8.46087 5.49848 8.65592 5.57705 8.89184C5.65561 9.12776 5.63724 9.38523 5.52598 9.60761C5.41471 9.82999 5.21966 9.99905 4.98374 10.0776C4.74782 10.1562 4.49035 10.1378 4.26797 10.0266L2.39297 9.08905C2.28273 9.03402 2.18441 8.9578 2.10365 8.86474C2.02289 8.77168 1.96127 8.66361 1.9223 8.54672C1.88334 8.42983 1.8678 8.3064 1.87657 8.1835C1.88535 8.0606 1.91826 7.94063 1.97344 7.83046ZM24.4734 9.60702C24.3624 9.38464 24.3442 9.12724 24.4229 8.89145C24.5015 8.65565 24.6706 8.46075 24.893 8.3496L26.768 7.4121C26.8781 7.35701 26.998 7.32414 27.1208 7.31538C27.2436 7.30662 27.3669 7.32213 27.4837 7.36103C27.6006 7.39993 27.7086 7.46146 27.8016 7.54211C27.8946 7.62275 27.9709 7.72094 28.026 7.83105C28.0811 7.94116 28.1139 8.06104 28.1227 8.18385C28.1315 8.30666 28.1159 8.43 28.077 8.54682C28.0381 8.66363 27.9766 8.77164 27.896 8.86468C27.8153 8.95772 27.7171 9.03396 27.607 9.08905L25.732 10.0266C25.6219 10.0817 25.5019 10.1146 25.379 10.1234C25.2561 10.1322 25.1327 10.1167 25.0158 10.0777C24.8989 10.0387 24.7908 9.9771 24.6978 9.89634C24.6047 9.81558 24.5285 9.71726 24.4734 9.60702ZM18.8484 3.14296L19.7859 1.26796C19.8972 1.04543 20.0923 0.876208 20.3283 0.797531C20.5644 0.718853 20.822 0.737162 21.0445 0.848428C21.2671 0.959695 21.4363 1.15481 21.515 1.39084C21.5936 1.62687 21.5753 1.88449 21.4641 2.10702L20.5266 3.98202C20.4153 4.20456 20.2202 4.37377 19.9842 4.45245C19.7481 4.53113 19.4905 4.51282 19.268 4.40155C19.0454 4.29029 18.8762 4.09518 18.7975 3.85914C18.7189 3.62311 18.7372 3.36549 18.8484 3.14296Z" fill="white"/>
</svg>
