<svg width="23" height="23" viewBox="0 0 23 23" fill="none" xmlns="http://www.w3.org/2000/svg">
<path d="M11.3714 0.5C9.95123 0.5 8.54499 0.780212 7.23294 1.32464C5.9209 1.86906 4.72874 2.66704 3.72455 3.67301C1.69648 5.70465 0.557129 8.46015 0.557129 11.3333C0.557129 14.2065 1.69648 16.962 3.72455 18.9937C4.72874 19.9996 5.9209 20.7976 7.23294 21.342C8.54499 21.8865 9.95123 22.1667 11.3714 22.1667C14.2395 22.1667 16.9901 21.0253 19.0182 18.9937C21.0463 16.962 22.1856 14.2065 22.1856 11.3333C22.1856 9.91068 21.9059 8.50196 21.3624 7.1876C20.819 5.87323 20.0224 4.67898 19.0182 3.67301C18.014 2.66704 16.8219 1.86906 15.5098 1.32464C14.1978 0.780212 12.7915 0.5 11.3714 0.5ZM6.03995 18.1367C6.50497 17.1617 9.3383 16.2083 11.3714 16.2083C13.4045 16.2083 16.2378 17.1617 16.7028 18.1367C15.1881 19.3457 13.3081 20.0028 11.3714 20C9.35993 20 7.51069 19.3067 6.03995 18.1367ZM18.2492 16.5658C16.7028 14.6808 12.9503 14.0417 11.3714 14.0417C9.7925 14.0417 6.03995 14.6808 4.49352 16.5658C3.34308 15.065 2.71962 13.2256 2.71998 11.3333C2.71998 6.55583 6.60229 2.66667 11.3714 2.66667C16.1405 2.66667 20.0228 6.55583 20.0228 11.3333C20.0228 13.305 19.3523 15.125 18.2492 16.5658ZM11.3714 4.83333C9.27341 4.83333 7.58639 6.52333 7.58639 8.625C7.58639 10.7267 9.27341 12.4167 11.3714 12.4167C13.4693 12.4167 15.1564 10.7267 15.1564 8.625C15.1564 6.52333 13.4693 4.83333 11.3714 4.83333ZM11.3714 10.25C10.9412 10.25 10.5286 10.0788 10.2244 9.77405C9.92014 9.4693 9.74924 9.05598 9.74924 8.625C9.74924 8.19402 9.92014 7.7807 10.2244 7.47595C10.5286 7.1712 10.9412 7 11.3714 7C11.8016 7 12.2142 7.1712 12.5184 7.47595C12.8226 7.7807 12.9935 8.19402 12.9935 8.625C12.9935 9.05598 12.8226 9.4693 12.5184 9.77405C12.2142 10.0788 11.8016 10.25 11.3714 10.25Z" fill="white"/>
</svg>
