<svg width="63" height="55" viewBox="0 0 63 55" fill="none" xmlns="http://www.w3.org/2000/svg">
<g id="Z">
<path d="M20.0653 45V42.0597L38.0994 15.1392H19.8693V11.5455H42.9347V14.4858L24.9006 41.4062H43.1307V45H20.0653Z" fill="black"/>
<path d="M20.0653 45H18.0653V47H20.0653V45ZM20.0653 42.0597L18.4037 40.9465L18.0653 41.4517V42.0597H20.0653ZM38.0994 15.1392L39.761 16.2523L41.8465 13.1392H38.0994V15.1392ZM19.8693 15.1392H17.8693V17.1392H19.8693V15.1392ZM19.8693 11.5455V9.54545H17.8693V11.5455H19.8693ZM42.9347 11.5455H44.9347V9.54545H42.9347V11.5455ZM42.9347 14.4858L44.5963 15.5989L44.9347 15.0938V14.4858H42.9347ZM24.9006 41.4062L23.239 40.2931L21.1535 43.4062H24.9006V41.4062ZM43.1307 41.4062H45.1307V39.4062H43.1307V41.4062ZM43.1307 45V47H45.1307V45H43.1307ZM22.0653 45V42.0597H18.0653V45H22.0653ZM21.727 43.1728L39.761 16.2523L36.4378 14.0261L18.4037 40.9465L21.727 43.1728ZM38.0994 13.1392H19.8693V17.1392H38.0994V13.1392ZM21.8693 15.1392V11.5455H17.8693V15.1392H21.8693ZM19.8693 13.5455H42.9347V9.54545H19.8693V13.5455ZM40.9347 11.5455V14.4858H44.9347V11.5455H40.9347ZM41.273 13.3727L23.239 40.2931L26.5622 42.5194L44.5963 15.5989L41.273 13.3727ZM24.9006 43.4062H43.1307V39.4062H24.9006V43.4062ZM41.1307 41.4062V45H45.1307V41.4062H41.1307ZM43.1307 43H20.0653V47H43.1307V43Z" fill="white"/>
</g>
</svg>
