<svg width="300" height="120" viewBox="0 0 300 120" fill="none" xmlns="http://www.w3.org/2000/svg">
<path d="M0 0V7.88571H76.8627V0H0ZM0 120H8.74998V67.0286H76.8627V59.1429H0V120Z" fill="#606AA9"/>
<path d="M98.8026 0H90.0526L34.8076 120H44.2438L94.3418 9.6L144.611 120H154.048L98.8026 0Z" fill="#7568A6"/>
<path d="M231.476 29.1429C225.986 20.0571 218.437 13.0286 208.83 7.71429C199.222 2.57143 188.07 0 175.717 0H128.192V7.88571H175.03C186.011 7.88571 195.79 10.1143 204.369 14.5714C212.776 19.0286 219.295 25.2 223.928 32.9143C228.388 40.8 230.79 49.8857 230.79 60C230.79 70.2857 228.388 79.2 223.928 87.0857C219.295 94.9714 212.776 101.143 204.369 105.6C195.79 110.057 186.011 112.114 175.03 112.114H136.942V60H128.192V120H175.717C188.07 120 199.222 117.429 208.83 112.286C218.437 107.143 225.986 100.114 231.476 91.0286C236.795 81.9429 239.54 71.6571 239.54 60C239.54 48.5143 236.795 38.2286 231.476 29.1429Z" fill="#8B66A3"/>
<path d="M300 55.2H222.279V62.9143H300V55.2ZM300 0H222.279V7.88571H300V0ZM222.279 112.114V120H300V112.114H222.279Z" fill="#A064A0"/>
</svg>
