<svg width="203" height="175" viewBox="0 0 203 175" fill="none" xmlns="http://www.w3.org/2000/svg">
<path d="M14.8526 58.7053H0.389465V159.947C0.389465 167.902 6.89789 174.411 14.8526 174.411H145.021V159.947H14.8526V58.7053Z" fill="#363636"/>
<path d="M43.7789 29.7789H29.3158V131.021C29.3158 138.976 35.8242 145.484 43.7789 145.484H173.947V131.021H43.7789V29.7789Z" fill="#363636"/>
<path d="M188.411 0.852631H72.7053C64.7505 0.852631 58.2421 7.36105 58.2421 15.3158V102.095C58.2421 110.049 64.7505 116.558 72.7053 116.558H188.411C196.365 116.558 202.874 110.049 202.874 102.095V15.3158C202.874 7.36105 196.365 0.852631 188.411 0.852631ZM188.411 102.095H72.7053V44.2421H188.411V102.095Z" fill="#363636"/>
</svg>
