<svg width="20" height="20" viewBox="0 0 20 20" fill="none" xmlns="http://www.w3.org/2000/svg">
<path d="M16.9192 9.78809H19.1339" stroke="#414141" stroke-width="2"/>
<path d="M0 9.78809H12.1986" stroke="#414141" stroke-width="2"/>
<path d="M7.4191 3.48224H19.1339" stroke="#414141" stroke-width="2"/>
<path d="M0 3.48224H2.70644" stroke="#414141" stroke-width="2"/>
<path d="M10.7471 16.0939H19.1339" stroke="#414141" stroke-width="2"/>
<path d="M0 16.0939H6.02654" stroke="#414141" stroke-width="2"/>
<path d="M5.06278 5.72053C6.36632 5.72053 7.42304 4.6638 7.42304 3.36026C7.42304 2.05673 6.36632 1 5.06278 1C3.75924 1 2.70251 2.05673 2.70251 3.36026C2.70251 4.6638 3.75924 5.72053 5.06278 5.72053Z" stroke="#414141" stroke-width="2"/>
<path d="M14.5589 12.1483C15.8624 12.1483 16.9192 11.0916 16.9192 9.78806C16.9192 8.48452 15.8624 7.4278 14.5589 7.4278C13.2554 7.4278 12.1986 8.48452 12.1986 9.78806C12.1986 11.0916 13.2554 12.1483 14.5589 12.1483Z" stroke="#414141" stroke-width="2"/>
<path d="M8.38678 18.4542C9.69032 18.4542 10.747 17.3974 10.747 16.0939C10.747 14.7904 9.69032 13.7336 8.38678 13.7336C7.08325 13.7336 6.02652 14.7904 6.02652 16.0939C6.02652 17.3974 7.08325 18.4542 8.38678 18.4542Z" stroke="#414141" stroke-width="2"/>
</svg>
