<svg width="42" height="42" viewBox="0 0 42 42" fill="none" xmlns="http://www.w3.org/2000/svg">
<path d="M21.2354 23.9889C21.1963 23.9889 21.1377 23.9889 21.0986 23.9889C21.04 23.9889 20.9619 23.9889 20.9033 23.9889C16.4688 23.8521 13.1479 20.3944 13.1479 16.1358C13.1479 11.7991 16.6837 8.26324 21.0205 8.26324C25.3572 8.26324 28.8931 11.7991 28.8931 16.1358C28.8735 20.414 25.5331 23.8521 21.294 23.9889C21.2549 23.9889 21.2549 23.9889 21.2354 23.9889ZM21.001 11.1739C18.2661 11.1739 16.0586 13.4009 16.0586 16.1163C16.0586 18.7926 18.1489 20.961 20.8056 21.0586C20.8642 21.0391 21.0596 21.0391 21.2549 21.0586C23.8726 20.9219 25.9238 18.7731 25.9433 16.1163C25.9433 13.4009 23.7359 11.1739 21.001 11.1739Z" fill="#363636"/>
<path d="M21.0016 42.0002C15.7467 42.0002 10.7262 40.0468 6.8388 36.4914C6.48718 36.1788 6.3309 35.71 6.36997 35.2607C6.62392 32.9361 8.0695 30.7677 10.4723 29.1658C16.2937 25.2979 25.729 25.2979 31.5309 29.1658C33.9337 30.7872 35.3792 32.9361 35.6332 35.2607C35.6918 35.7295 35.516 36.1788 35.1644 36.4914C31.2769 40.0468 26.2565 42.0002 21.0016 42.0002ZM9.43694 34.87C12.6797 37.5854 16.7625 39.07 21.0016 39.07C25.2406 39.07 29.3234 37.5854 32.5662 34.87C32.2146 33.6784 31.2769 32.5258 29.8899 31.5881C25.0844 28.3844 16.9383 28.3844 12.0937 31.5881C10.7067 32.5258 9.78857 33.6784 9.43694 34.87Z" fill="#363636"/>
<path d="M21 42C9.41581 42 0 32.5842 0 21C0 9.41581 9.41581 0 21 0C32.5842 0 42 9.41581 42 21C42 32.5842 32.5842 42 21 42ZM21 2.93023C11.0372 2.93023 2.93023 11.0372 2.93023 21C2.93023 30.9628 11.0372 39.0698 21 39.0698C30.9628 39.0698 39.0698 30.9628 39.0698 21C39.0698 11.0372 30.9628 2.93023 21 2.93023Z" fill="#363636"/>
</svg>
