<svg width="23" height="7" viewBox="0 0 23 7" fill="none" xmlns="http://www.w3.org/2000/svg">
<path d="M14.8387 3.33871C14.8387 5.18427 13.3456 6.67742 11.5 6.67742C9.65444 6.67742 8.16129 5.18427 8.16129 3.33871C8.16129 1.49315 9.65444 0 11.5 0C13.3456 0 14.8387 1.49315 14.8387 3.33871ZM19.6613 0C17.8157 0 16.3226 1.49315 16.3226 3.33871C16.3226 5.18427 17.8157 6.67742 19.6613 6.67742C21.5069 6.67742 23 5.18427 23 3.33871C23 1.49315 21.5069 0 19.6613 0ZM3.33871 0C1.49315 0 0 1.49315 0 3.33871C0 5.18427 1.49315 6.67742 3.33871 6.67742C5.18427 6.67742 6.67742 5.18427 6.67742 3.33871C6.67742 1.49315 5.18427 0 3.33871 0Z" fill="#383838"/>
</svg>
