<?xml version="1.0" standalone="no"?>
<!DOCTYPE svg PUBLIC "-//W3C//DTD SVG 20010904//EN"
 "http://www.w3.org/TR/2001/REC-SVG-20010904/DTD/svg10.dtd">
<svg version="1.0" xmlns="http://www.w3.org/2000/svg"
 width="84.000000pt" height="84.000000pt" viewBox="0 0 84.000000 84.000000"
 preserveAspectRatio="xMidYMid meet">

<g transform="translate(0.000000,84.000000) scale(0.100000,-0.100000)"
fill="#000000" stroke="none">
<path d="M0 420 l0 -420 420 0 420 0 0 420 0 420 -420 0 -420 0 0 -420z m672
373 c27 -24 26 -123 -2 -148 -31 -28 -24 -42 22 -48 32 -4 51 -15 75 -41 l33
-36 0 -200 c0 -188 -1 -201 -20 -217 -11 -10 -20 -25 -20 -35 0 -45 -85 -47
-96 -3 -6 23 -10 25 -69 25 -59 0 -63 -2 -69 -25 -12 -46 -96 -41 -96 5 0 19
-7 20 -114 20 -113 0 -114 0 -120 -25 -12 -46 -96 -41 -96 5 0 13 -7 20 -19
20 -47 0 -51 18 -51 229 0 186 1 200 21 225 11 14 34 33 50 41 31 16 30 31 -3
74 -24 32 -23 92 3 125 l20 26 266 0 c234 0 269 -2 285 -17z"/>
<path d="M133 773 c-21 -8 -16 -91 7 -120 11 -14 20 -32 20 -39 0 -11 34 -14
175 -14 168 0 175 1 175 20 0 11 9 29 20 40 25 25 28 105 4 114 -19 7 -383 7
-401 -1z m160 -79 c-3 -8 -9 -14 -13 -14 -14 0 -22 20 -16 37 5 12 9 13 21 3
7 -6 11 -18 8 -26z m107 5 c0 -20 -15 -26 -25 -9 -9 15 3 43 15 35 5 -3 10
-15 10 -26z m-50 -49 c0 -11 -7 -20 -15 -20 -8 0 -15 9 -15 20 0 11 7 20 15
20 8 0 15 -9 15 -20z"/>
<path d="M640 722 c0 -36 -5 -54 -20 -67 -21 -19 -27 -55 -10 -55 6 0 10 9 10
20 0 11 9 28 20 37 15 13 20 30 20 65 0 27 -4 48 -10 48 -5 0 -10 -22 -10 -48z"/>
<path d="M550 538 c18 -30 20 -51 20 -226 l0 -193 98 3 97 3 3 180 c1 99 0
190 -3 203 -3 12 -20 31 -38 42 -44 27 -52 25 -28 -6 23 -29 29 -88 9 -82 -7
3 -15 17 -19 32 -9 32 -25 53 -51 67 -18 10 -19 9 -4 -20 19 -36 21 -84 4 -79
-7 3 -16 18 -20 36 -8 31 -50 72 -74 72 -10 0 -9 -8 6 -32z m140 -178 c0 -18
6 -33 15 -36 38 -15 41 -68 4 -79 -14 -5 -19 -16 -19 -42 0 -42 -23 -41 -28 2
-2 16 -12 35 -23 43 -25 17 -24 48 1 69 11 10 20 30 20 45 0 18 5 28 15 28 10
0 15 -10 15 -30z"/>
<path d="M110 520 c-18 -18 -20 -33 -20 -155 0 -83 4 -135 10 -135 6 0 10 49
10 128 0 112 2 131 18 145 10 10 24 17 30 17 7 0 12 5 12 10 0 17 -39 11 -60
-10z"/>
<path d="M90 175 c0 -14 5 -25 10 -25 6 0 10 11 10 25 0 14 -4 25 -10 25 -5 0
-10 -11 -10 -25z"/>
<path d="M130 80 c0 -5 9 -10 21 -10 11 0 17 5 14 10 -3 6 -13 10 -21 10 -8 0
-14 -4 -14 -10z"/>
<path d="M460 80 c0 -5 9 -10 21 -10 11 0 17 5 14 10 -3 6 -13 10 -21 10 -8 0
-14 -4 -14 -10z"/>
<path d="M695 80 c-3 -5 3 -10 14 -10 12 0 21 5 21 10 0 6 -6 10 -14 10 -8 0
-18 -4 -21 -10z"/>
</g>
</svg>
