<svg width="280" height="232" viewBox="0 0 280 232" fill="none" xmlns="http://www.w3.org/2000/svg">
<circle cx="151.5" cy="102.5" r="79.5" fill="url(#paint0_linear_54_5)"/>
<circle cx="140" cy="116" r="116" fill="url(#paint1_linear_54_5)"/>
<path d="M1.66992 174.856C1.3916 174.856 1.15967 174.727 0.974121 174.467C0.807129 174.207 0.723633 173.957 0.723633 173.715C0.723633 173.307 0.788574 173.038 0.918457 172.908C1.04834 172.797 1.31738 172.723 1.72559 172.686C2.39355 172.611 2.9502 172.509 3.39551 172.379C3.85937 172.268 4.2583 172.027 4.59229 171.656C4.94482 171.285 5.12109 170.728 5.12109 169.986V141.347C5.12109 140.493 4.96338 139.844 4.64795 139.398C4.33252 138.935 3.96143 138.628 3.53467 138.48C3.10791 138.332 2.56055 138.211 1.89258 138.118C1.35449 138.025 1.04834 137.97 0.974121 137.951C0.751465 137.858 0.584473 137.729 0.473145 137.562C0.361816 137.395 0.306152 137.153 0.306152 136.838C0.306152 136.578 0.361816 136.318 0.473145 136.059C0.603027 135.78 0.77002 135.632 0.974121 135.613C5.07471 135.409 8.64648 135.289 11.6895 135.251C11.875 135.251 12.0513 135.335 12.2183 135.502C12.3853 135.669 12.4873 135.957 12.5244 136.365V138.452C13.4521 137.302 14.7231 136.402 16.3374 135.752C17.9702 135.103 19.5845 134.778 21.1802 134.778C24.0376 134.778 26.3848 135.446 28.2217 136.782C30.0586 138.1 31.3945 139.844 32.2295 142.015C33.0645 144.186 33.4819 146.607 33.4819 149.279C33.4819 151.876 32.9717 154.279 31.9512 156.487C30.9492 158.695 29.4185 160.467 27.3589 161.803C25.2993 163.139 22.7852 163.807 19.8164 163.807C16.792 163.807 14.3335 163.353 12.4409 162.443L12.6357 164.893V170.904C12.6357 171.461 13.1182 171.869 14.083 172.129C15.0664 172.407 16.2446 172.593 17.6177 172.686C17.9702 172.723 18.2114 172.825 18.3413 172.992C18.4712 173.159 18.5361 173.4 18.5361 173.715C18.5361 173.975 18.4526 174.226 18.2856 174.467C18.1187 174.727 17.8867 174.856 17.5898 174.856H1.66992ZM17.6733 160.996C20.4565 160.996 22.4141 159.976 23.5459 157.935C24.6777 155.894 25.2437 153.008 25.2437 149.279C25.2437 145.846 24.687 143.174 23.5737 141.263C22.4604 139.333 20.5864 138.369 17.9517 138.369C16.9868 138.369 15.9849 138.619 14.9458 139.12C13.9067 139.603 13.1367 140.233 12.6357 141.013V158.491C12.9883 159.159 13.6562 159.744 14.6396 160.245C15.623 160.746 16.6343 160.996 17.6733 160.996ZM38.77 163C38.4731 163 38.2412 162.879 38.0742 162.638C37.9072 162.378 37.8237 162.119 37.8237 161.859C37.8237 161.543 37.8887 161.302 38.0186 161.135C38.167 160.95 38.4082 160.848 38.7422 160.829C40.876 160.606 41.9429 160.078 41.9429 159.243L41.9707 141.347C41.9707 140.475 41.813 139.816 41.4976 139.371C41.2007 138.925 40.8389 138.628 40.4121 138.48C39.9854 138.332 39.438 138.211 38.77 138.118C38.6772 138.1 38.5288 138.081 38.3247 138.062C38.1206 138.025 37.9536 137.988 37.8237 137.951C37.6011 137.858 37.4341 137.729 37.3228 137.562C37.2114 137.395 37.1558 137.153 37.1558 136.838C37.1558 136.578 37.2114 136.318 37.3228 136.059C37.4526 135.78 37.6196 135.632 37.8237 135.613C41.5718 135.372 45.2085 135.251 48.7339 135.251C48.938 135.251 49.1235 135.344 49.2905 135.53C49.4575 135.697 49.5503 135.975 49.5688 136.365V158.324C49.5688 159.011 49.7358 159.53 50.0698 159.883C50.4224 160.235 50.8213 160.467 51.2666 160.579C51.7119 160.671 52.2778 160.755 52.9644 160.829C53.3726 160.866 53.6416 160.95 53.7715 161.08C53.9014 161.191 53.9663 161.451 53.9663 161.859C53.9663 162.1 53.8735 162.351 53.688 162.61C53.521 162.87 53.2983 163 53.02 163H38.77ZM45.6167 130.409C44.7446 130.409 43.9561 130.214 43.251 129.824C42.5645 129.416 42.0171 128.859 41.6089 128.154C41.2007 127.431 40.9966 126.624 40.9966 125.733C40.9966 124.842 41.2007 124.044 41.6089 123.339C42.0171 122.616 42.5645 122.05 43.251 121.642C43.9561 121.233 44.7446 121.029 45.6167 121.029C46.4702 121.029 47.2495 121.233 47.9546 121.642C48.6597 122.05 49.2163 122.616 49.6245 123.339C50.0327 124.044 50.2368 124.842 50.2368 125.733C50.2368 126.624 50.0327 127.431 49.6245 128.154C49.2163 128.859 48.6597 129.416 47.9546 129.824C47.2495 130.214 46.4702 130.409 45.6167 130.409ZM71.5562 163.807C66.6392 163.807 62.9561 162.527 60.5068 159.966C58.0576 157.406 56.833 153.843 56.833 149.279C56.833 146.31 57.4639 143.731 58.7256 141.542C60.0059 139.352 61.7778 137.682 64.0415 136.532C66.3052 135.363 68.9028 134.778 71.8345 134.778C74.3394 134.778 76.4175 135.168 78.0688 135.947C79.7202 136.708 80.9355 137.914 81.7148 139.565C82.1602 140.438 82.3828 141.235 82.3828 141.959C82.3828 142.757 82.1973 143.434 81.8262 143.991C81.4736 144.529 81.0376 144.937 80.5181 145.215C79.9985 145.475 79.5161 145.605 79.0708 145.605C78.4585 145.605 77.9111 145.457 77.4287 145.16C76.9463 144.863 76.603 144.492 76.3989 144.046L73.6992 137.756C73.5508 137.645 73.3188 137.534 73.0034 137.422C72.7065 137.311 72.3354 137.255 71.8901 137.255C69.8491 137.255 68.2256 138.229 67.0195 140.178C65.8135 142.126 65.2104 145.188 65.2104 149.362C65.2104 151.83 65.563 153.89 66.2681 155.541C66.9731 157.192 67.873 158.408 68.9678 159.187C70.0625 159.966 71.2036 160.356 72.3911 160.356C73.8755 160.356 75.2393 160.087 76.4824 159.549C77.7441 158.992 78.7368 158.213 79.4604 157.211C79.4976 157.174 79.5439 157.109 79.5996 157.016C79.6738 156.923 79.748 156.858 79.8223 156.821C79.915 156.766 80.0171 156.756 80.1284 156.793L81.4087 157.378C81.5942 157.489 81.687 157.61 81.687 157.74C81.687 157.87 81.6313 158.018 81.52 158.185C80.6108 159.855 79.2563 161.209 77.4565 162.249C75.6753 163.288 73.7085 163.807 71.5562 163.807ZM96.772 163.835C94.1743 163.835 92.1519 163.297 90.7046 162.221C89.2759 161.145 88.5615 159.335 88.5615 156.793V138.174H85.5278C85.3237 138.155 85.1567 138.025 85.0269 137.784C84.9155 137.543 84.8599 137.292 84.8599 137.033C84.8599 136.68 84.9248 136.393 85.0547 136.17C85.1846 135.947 85.3608 135.817 85.5835 135.78L87.9771 135.084C88.9604 134.936 89.8789 134.222 90.7324 132.941C91.5859 131.643 92.2539 129.898 92.7363 127.709C92.8848 127.078 93.4971 126.763 94.5732 126.763C95.2041 126.763 95.6401 126.837 95.8813 126.985C96.1226 127.115 96.2432 127.329 96.2432 127.625V135.335H103.09C103.294 135.354 103.452 135.456 103.563 135.641C103.693 135.827 103.758 136.04 103.758 136.281C103.758 136.801 103.674 137.237 103.507 137.589C103.34 137.942 103.155 138.118 102.951 138.118H96.2432V154.456C96.2432 155.996 96.3452 157.183 96.5493 158.018C96.772 158.853 97.0781 159.428 97.4678 159.744C97.8574 160.059 98.3677 160.217 98.9985 160.217C100.39 160.217 101.977 159.79 103.758 158.937C103.869 158.937 104.008 159.066 104.175 159.326C104.361 159.567 104.509 159.827 104.621 160.105C104.732 160.384 104.76 160.588 104.704 160.718C104.277 161.182 103.591 161.655 102.645 162.137C101.717 162.62 100.715 163.019 99.6387 163.334C98.5625 163.668 97.6069 163.835 96.772 163.835ZM119.706 163.751C117.887 163.751 116.329 163.529 115.03 163.083C113.75 162.638 112.729 161.812 111.968 160.606C111.208 159.382 110.827 157.675 110.827 155.485V140.206C110.827 139.463 110.669 138.907 110.354 138.536C110.057 138.146 109.695 137.896 109.269 137.784C108.86 137.673 108.332 137.58 107.682 137.506C107.274 137.469 107.005 137.395 106.875 137.283C106.745 137.153 106.68 136.884 106.68 136.476C106.68 136.235 106.764 135.984 106.931 135.725C107.116 135.465 107.348 135.335 107.626 135.335H117.396C118.082 135.335 118.425 135.669 118.425 136.337V153.871C118.425 155.615 118.667 157.007 119.149 158.046C119.631 159.085 120.476 159.604 121.682 159.604C123.314 159.604 124.697 159.354 125.829 158.853C126.979 158.333 128.027 157.563 128.974 156.543V140.206C128.974 139.463 128.779 138.907 128.389 138.536C128 138.165 127.536 137.923 126.998 137.812C126.478 137.682 125.782 137.58 124.91 137.506C124.502 137.469 124.233 137.395 124.103 137.283C123.973 137.153 123.908 136.884 123.908 136.476C123.908 136.235 123.992 135.984 124.159 135.725C124.344 135.465 124.576 135.335 124.854 135.335H135.514C136.201 135.335 136.544 135.669 136.544 136.337V156.933C136.544 158.139 136.646 158.955 136.85 159.382C137.073 159.79 137.37 159.994 137.741 159.994C138.316 159.994 138.789 159.92 139.16 159.771C139.438 159.642 139.689 159.79 139.912 160.217C140.134 160.644 140.246 161.07 140.246 161.497C140.246 161.757 140.199 161.915 140.106 161.97C139.55 162.36 138.668 162.74 137.462 163.111C136.275 163.501 134.781 163.696 132.981 163.696C131.608 163.696 130.662 163.25 130.143 162.36C129.623 161.469 129.335 160.365 129.28 159.048C128.779 159.827 128.018 160.579 126.998 161.302C125.977 162.026 124.817 162.61 123.519 163.056C122.238 163.52 120.967 163.751 119.706 163.751ZM144.754 156.265C144.754 153.964 145.599 152.136 147.287 150.782C148.976 149.409 151.044 148.416 153.494 147.804C155.943 147.173 158.735 146.69 161.871 146.356V141.848C161.871 140.345 161.481 139.222 160.702 138.48C159.923 137.738 158.754 137.367 157.195 137.367C155.767 137.367 154.755 137.524 154.162 137.84L150.098 145.048C148.855 145.048 147.844 144.724 147.064 144.074C146.304 143.425 145.923 142.516 145.923 141.347C145.923 139.992 146.545 138.823 147.788 137.84C149.05 136.838 150.646 136.077 152.575 135.558C154.505 135.038 156.444 134.778 158.392 134.778C162.363 134.778 165.239 135.539 167.02 137.061C168.82 138.563 169.72 140.53 169.72 142.961V157.461C169.72 158.204 169.822 158.844 170.026 159.382C170.23 159.901 170.48 160.161 170.777 160.161C171.019 160.161 171.482 160.096 172.169 159.966C172.577 159.892 172.8 159.855 172.837 159.855C173.115 159.855 173.329 160.013 173.477 160.328C173.625 160.625 173.7 160.95 173.7 161.302C173.7 161.525 173.644 161.683 173.533 161.775C172.976 162.165 172.03 162.573 170.694 163C169.376 163.427 167.929 163.64 166.352 163.64C164.756 163.64 163.699 163.306 163.179 162.638C162.66 161.97 162.4 161.107 162.4 160.05V159.911C160.025 162.397 156.852 163.64 152.881 163.64C151.638 163.64 150.395 163.38 149.152 162.861C147.909 162.341 146.86 161.534 146.007 160.439C145.172 159.326 144.754 157.935 144.754 156.265ZM152.993 156.014C152.993 157.09 153.327 158.018 153.995 158.797C154.663 159.558 155.581 159.938 156.75 159.938C157.919 159.938 158.93 159.725 159.784 159.298C160.637 158.853 161.333 158.333 161.871 157.74V148.5C159.997 148.778 158.438 149.14 157.195 149.585C155.971 150.012 154.959 150.735 154.162 151.756C153.382 152.776 152.993 154.196 152.993 156.014ZM177.29 163C176.993 163 176.761 162.879 176.594 162.638C176.427 162.378 176.344 162.119 176.344 161.859C176.344 161.543 176.409 161.302 176.539 161.135C176.668 160.968 176.91 160.866 177.262 160.829C178.171 160.755 178.932 160.597 179.544 160.356C180.175 160.115 180.491 159.744 180.491 159.243V141.347C180.491 140.475 180.333 139.807 180.018 139.343C179.702 138.879 179.331 138.573 178.904 138.424C178.478 138.276 177.921 138.146 177.234 138.035C177.142 138.016 177.002 137.998 176.817 137.979C176.631 137.942 176.474 137.905 176.344 137.868C176.121 137.775 175.954 137.645 175.843 137.478C175.731 137.311 175.676 137.07 175.676 136.754C175.676 136.495 175.741 136.235 175.871 135.975C176 135.697 176.158 135.548 176.344 135.53C179.405 135.381 182.689 135.289 186.196 135.251H186.92C187.105 135.251 187.282 135.335 187.449 135.502C187.616 135.669 187.718 135.957 187.755 136.365V141.43C188.33 140.28 189.063 139.204 189.954 138.202C190.863 137.2 191.902 136.383 193.071 135.752C194.24 135.103 195.483 134.778 196.8 134.778C198.396 134.778 199.546 135.233 200.251 136.142C200.957 137.033 201.309 138.137 201.309 139.454C201.309 140.271 201.096 141.031 200.669 141.736C200.242 142.441 199.723 142.998 199.11 143.406C198.498 143.814 197.923 144.019 197.385 144.019L193.794 139.371C192.7 139.371 191.624 139.927 190.566 141.041C189.527 142.154 188.692 143.471 188.061 144.993V158.324C188.061 159.011 188.302 159.53 188.785 159.883C189.286 160.217 189.824 160.43 190.399 160.523C190.974 160.616 191.846 160.718 193.015 160.829C193.423 160.866 193.692 160.95 193.822 161.08C193.952 161.191 194.017 161.451 194.017 161.859C194.017 162.119 193.934 162.378 193.767 162.638C193.6 162.879 193.368 163 193.071 163H177.29ZM204.76 163C204.463 163 204.231 162.879 204.064 162.638C203.897 162.378 203.814 162.119 203.814 161.859C203.814 161.543 203.879 161.302 204.009 161.135C204.157 160.95 204.398 160.848 204.732 160.829C206.866 160.606 207.933 160.078 207.933 159.243L207.961 141.347C207.961 140.475 207.803 139.816 207.488 139.371C207.191 138.925 206.829 138.628 206.402 138.48C205.976 138.332 205.428 138.211 204.76 138.118C204.667 138.1 204.519 138.081 204.315 138.062C204.111 138.025 203.944 137.988 203.814 137.951C203.591 137.858 203.424 137.729 203.313 137.562C203.202 137.395 203.146 137.153 203.146 136.838C203.146 136.578 203.202 136.318 203.313 136.059C203.443 135.78 203.61 135.632 203.814 135.613C207.562 135.372 211.199 135.251 214.724 135.251C214.928 135.251 215.114 135.344 215.281 135.53C215.448 135.697 215.541 135.975 215.559 136.365V158.324C215.559 159.011 215.726 159.53 216.06 159.883C216.413 160.235 216.812 160.467 217.257 160.579C217.702 160.671 218.268 160.755 218.955 160.829C219.363 160.866 219.632 160.95 219.762 161.08C219.892 161.191 219.957 161.451 219.957 161.859C219.957 162.1 219.864 162.351 219.678 162.61C219.511 162.87 219.289 163 219.01 163H204.76ZM211.607 130.409C210.735 130.409 209.946 130.214 209.241 129.824C208.555 129.416 208.007 128.859 207.599 128.154C207.191 127.431 206.987 126.624 206.987 125.733C206.987 124.842 207.191 124.044 207.599 123.339C208.007 122.616 208.555 122.05 209.241 121.642C209.946 121.233 210.735 121.029 211.607 121.029C212.46 121.029 213.24 121.233 213.945 121.642C214.65 122.05 215.207 122.616 215.615 123.339C216.023 124.044 216.227 124.842 216.227 125.733C216.227 126.624 216.023 127.431 215.615 128.154C215.207 128.859 214.65 129.416 213.945 129.824C213.24 130.214 212.46 130.409 211.607 130.409ZM237.713 163.807C232.722 163.807 228.983 162.536 226.497 159.994C224.029 157.452 222.795 153.806 222.795 149.056C222.795 146.069 223.454 143.499 224.771 141.347C226.089 139.194 227.852 137.562 230.06 136.448C232.268 135.335 234.689 134.778 237.324 134.778C241.183 134.778 244.059 135.595 245.952 137.228C247.863 138.842 249.087 141.198 249.625 144.297C249.811 145.429 249.904 146.959 249.904 148.889L231.089 148.917C231.089 151.626 231.498 153.834 232.314 155.541C233.13 157.248 234.16 158.482 235.403 159.243C236.646 159.985 237.973 160.356 239.383 160.356C240.979 160.356 242.361 160.105 243.53 159.604C244.699 159.085 245.673 158.287 246.453 157.211C246.471 157.192 246.508 157.137 246.564 157.044C246.638 156.933 246.712 156.858 246.787 156.821C246.879 156.784 246.981 156.775 247.093 156.793L248.373 157.378C248.577 157.452 248.679 157.563 248.679 157.712C248.679 157.805 248.624 157.962 248.512 158.185C247.566 159.929 246.184 161.302 244.365 162.304C242.565 163.306 240.348 163.807 237.713 163.807ZM241.666 146.329C241.666 143.174 241.294 140.874 240.552 139.426C239.81 137.979 238.706 137.255 237.24 137.255C235.515 137.255 234.123 137.951 233.065 139.343C232.008 140.734 231.377 143.082 231.173 146.384L241.666 146.329ZM265.518 163.807C264.2 163.807 263.059 163.668 262.094 163.39C261.148 163.111 260.174 162.768 259.172 162.36C258.727 162.174 258.346 162.082 258.031 162.082C257.752 162.082 257.53 162.128 257.363 162.221C257.214 162.295 257.066 162.406 256.917 162.555C256.75 162.703 256.583 162.824 256.417 162.917C256.25 162.991 256.018 163.028 255.721 163.028C255.35 163.028 255.034 162.944 254.774 162.777C254.533 162.61 254.413 162.397 254.413 162.137C254.413 161.581 254.394 160.959 254.357 160.272C254.32 159.586 254.292 158.927 254.273 158.296C254.162 156.033 254.106 154.604 254.106 154.01C254.106 153.602 254.227 153.305 254.468 153.12C254.728 152.916 255.034 152.813 255.387 152.813C255.684 152.813 255.934 152.869 256.138 152.98C256.361 153.092 256.5 153.24 256.556 153.426C256.723 154.038 256.899 154.613 257.084 155.151C257.289 155.689 257.623 156.422 258.086 157.35C258.643 158.445 259.543 159.4 260.786 160.217C262.048 161.033 263.504 161.441 265.156 161.441C266.751 161.441 268.022 161.145 268.969 160.551C269.934 159.957 270.416 159.104 270.416 157.99C270.416 157.081 270.138 156.302 269.581 155.652C269.024 154.984 268.199 154.372 267.104 153.815C266.009 153.24 264.469 152.572 262.484 151.812C260.257 150.902 258.43 149.761 257.001 148.388C255.591 147.015 254.886 145.225 254.886 143.017C254.886 141.439 255.387 140.02 256.389 138.758C257.391 137.497 258.727 136.522 260.396 135.836C262.066 135.131 263.875 134.778 265.824 134.778C266.863 134.778 267.781 134.88 268.579 135.084C269.377 135.27 270.184 135.511 271 135.808C271.613 136.031 272.012 136.142 272.197 136.142C272.476 136.142 272.661 136.096 272.754 136.003C272.865 135.892 272.949 135.762 273.004 135.613C273.06 135.446 273.116 135.316 273.171 135.224C273.283 135.038 273.45 134.899 273.672 134.806C273.895 134.695 274.136 134.639 274.396 134.639C274.767 134.639 275.083 134.732 275.342 134.917C275.621 135.084 275.76 135.316 275.76 135.613C275.76 135.836 275.75 136.049 275.732 136.253C275.695 137.218 275.676 138.248 275.676 139.343C275.676 139.51 275.704 140.178 275.76 141.347C275.797 141.94 275.815 142.33 275.815 142.516C275.815 142.979 275.695 143.323 275.454 143.545C275.231 143.768 274.934 143.879 274.563 143.879C274.303 143.879 274.071 143.833 273.867 143.74C273.663 143.629 273.533 143.499 273.478 143.351C273.069 142.237 272.615 141.254 272.114 140.4C271.631 139.547 270.889 138.795 269.887 138.146C268.904 137.497 267.642 137.172 266.102 137.172C264.877 137.172 263.848 137.441 263.013 137.979C262.196 138.517 261.788 139.343 261.788 140.456C261.788 141.644 262.298 142.646 263.319 143.462C264.358 144.26 265.981 145.067 268.189 145.883C270.119 146.607 271.771 147.358 273.144 148.138C274.517 148.917 275.63 149.891 276.483 151.06C277.355 152.229 277.792 153.611 277.792 155.207C277.792 157.935 276.725 160.05 274.591 161.553C272.476 163.056 269.451 163.807 265.518 163.807Z" fill="black" fill-opacity="0.69"/>
<defs>
<linearGradient id="paint0_linear_54_5" x1="192" y1="36" x2="151.5" y2="182" gradientUnits="userSpaceOnUse">
<stop stop-color="#FDFF9D"/>
<stop offset="1" stop-color="#FDFF9D" stop-opacity="0"/>
</linearGradient>
<linearGradient id="paint1_linear_54_5" x1="47" y1="191" x2="271.5" y2="68" gradientUnits="userSpaceOnUse">
<stop stop-color="#CAB9E7"/>
<stop offset="1" stop-color="#CAB9E7" stop-opacity="0"/>
</linearGradient>
</defs>
</svg>
