<svg width="573" height="177" viewBox="0 0 573 177" fill="none" xmlns="http://www.w3.org/2000/svg">
<path d="M177.766 47V13.4H184.198L198.502 37.112H195.094L209.158 13.4H215.542L215.638 47H208.342L208.294 24.584H209.638L198.406 43.448H194.902L183.43 24.584H185.062V47H177.766ZM219.193 47L234.169 13.4H241.849L256.873 47H248.713L236.425 17.336H239.497L227.161 47H219.193ZM226.681 39.8L228.745 33.896H246.025L248.137 39.8H226.681ZM271.399 47.576C268.711 47.576 266.135 47.224 263.671 46.52C261.207 45.784 259.223 44.84 257.719 43.688L260.359 37.832C261.799 38.856 263.495 39.704 265.447 40.376C267.431 41.016 269.431 41.336 271.447 41.336C272.983 41.336 274.215 41.192 275.143 40.904C276.103 40.584 276.807 40.152 277.255 39.608C277.703 39.064 277.927 38.44 277.927 37.736C277.927 36.84 277.575 36.136 276.871 35.624C276.167 35.08 275.239 34.648 274.087 34.328C272.935 33.976 271.655 33.656 270.247 33.368C268.871 33.048 267.479 32.664 266.071 32.216C264.695 31.768 263.431 31.192 262.279 30.488C261.127 29.784 260.183 28.856 259.447 27.704C258.743 26.552 258.391 25.08 258.391 23.288C258.391 21.368 258.903 19.624 259.927 18.056C260.983 16.456 262.551 15.192 264.631 14.264C266.743 13.304 269.383 12.824 272.551 12.824C274.663 12.824 276.743 13.08 278.791 13.592C280.839 14.072 282.647 14.808 284.215 15.8L281.815 21.704C280.247 20.808 278.679 20.152 277.111 19.736C275.543 19.288 274.007 19.064 272.503 19.064C270.999 19.064 269.767 19.24 268.807 19.592C267.847 19.944 267.159 20.408 266.743 20.984C266.327 21.528 266.119 22.168 266.119 22.904C266.119 23.768 266.471 24.472 267.175 25.016C267.879 25.528 268.807 25.944 269.959 26.264C271.111 26.584 272.375 26.904 273.751 27.224C275.159 27.544 276.551 27.912 277.927 28.328C279.335 28.744 280.615 29.304 281.767 30.008C282.919 30.712 283.847 31.64 284.551 32.792C285.287 33.944 285.655 35.4 285.655 37.16C285.655 39.048 285.127 40.776 284.071 42.344C283.015 43.912 281.431 45.176 279.319 46.136C277.239 47.096 274.599 47.576 271.399 47.576ZM297.46 47V19.736H286.708V13.4H315.988V19.736H305.236V47H297.46ZM327.324 26.936H343.5V32.984H327.324V26.936ZM327.9 40.76H346.188V47H320.172V13.4H345.564V19.64H327.9V40.76ZM352.375 47V13.4H366.919C369.927 13.4 372.519 13.896 374.695 14.888C376.871 15.848 378.551 17.24 379.735 19.064C380.919 20.888 381.511 23.064 381.511 25.592C381.511 28.088 380.919 30.248 379.735 32.072C378.551 33.864 376.871 35.24 374.695 36.2C372.519 37.16 369.927 37.64 366.919 37.64H356.695L360.151 34.232V47H352.375ZM373.735 47L365.335 34.808H373.639L382.135 47H373.735ZM360.151 35.096L356.695 31.448H366.487C368.887 31.448 370.679 30.936 371.863 29.912C373.047 28.856 373.639 27.416 373.639 25.592C373.639 23.736 373.047 22.296 371.863 21.272C370.679 20.248 368.887 19.736 366.487 19.736H356.695L360.151 16.04V35.096ZM387.672 47V13.4H395.448V47H387.672ZM403.422 47V13.4H409.854L429.678 37.592H426.558V13.4H434.238V47H427.854L407.982 22.808H411.102V47H403.422ZM458.412 47.576C455.756 47.576 453.308 47.16 451.068 46.328C448.86 45.464 446.924 44.248 445.26 42.68C443.628 41.112 442.348 39.272 441.42 37.16C440.524 35.048 440.076 32.728 440.076 30.2C440.076 27.672 440.524 25.352 441.42 23.24C442.348 21.128 443.644 19.288 445.308 17.72C446.972 16.152 448.924 14.952 451.164 14.12C453.404 13.256 455.868 12.824 458.556 12.824C461.532 12.824 464.204 13.32 466.572 14.312C468.972 15.304 470.988 16.744 472.62 18.632L467.628 23.24C466.412 21.96 465.084 21.016 463.644 20.408C462.204 19.768 460.636 19.448 458.94 19.448C457.308 19.448 455.82 19.704 454.476 20.216C453.132 20.728 451.964 21.464 450.972 22.424C450.012 23.384 449.26 24.52 448.716 25.832C448.204 27.144 447.948 28.6 447.948 30.2C447.948 31.768 448.204 33.208 448.716 34.52C449.26 35.832 450.012 36.984 450.972 37.976C451.964 38.936 453.116 39.672 454.428 40.184C455.772 40.696 457.244 40.952 458.844 40.952C460.38 40.952 461.868 40.712 463.308 40.232C464.78 39.72 466.204 38.872 467.58 37.688L471.996 43.304C470.172 44.68 468.044 45.736 465.612 46.472C463.212 47.208 460.812 47.576 458.412 47.576ZM464.892 42.296V29.672H471.996V43.304L464.892 42.296ZM177.766 106V72.4H184.198L198.502 96.112H195.094L209.158 72.4H215.542L215.638 106H208.342L208.294 83.584H209.638L198.406 102.448H194.902L183.43 83.584H185.062V106H177.766ZM239.929 106.576C237.273 106.576 234.809 106.144 232.537 105.28C230.297 104.416 228.345 103.2 226.681 101.632C225.049 100.064 223.769 98.224 222.841 96.112C221.945 94 221.497 91.696 221.497 89.2C221.497 86.704 221.945 84.4 222.841 82.288C223.769 80.176 225.065 78.336 226.729 76.768C228.393 75.2 230.345 73.984 232.585 73.12C234.825 72.256 237.257 71.824 239.881 71.824C242.537 71.824 244.969 72.256 247.177 73.12C249.417 73.984 251.353 75.2 252.985 76.768C254.649 78.336 255.945 80.176 256.873 82.288C257.801 84.368 258.265 86.672 258.265 89.2C258.265 91.696 257.801 94.016 256.873 96.16C255.945 98.272 254.649 100.112 252.985 101.68C251.353 103.216 249.417 104.416 247.177 105.28C244.969 106.144 242.553 106.576 239.929 106.576ZM239.881 99.952C241.385 99.952 242.761 99.696 244.009 99.184C245.289 98.672 246.409 97.936 247.369 96.976C248.329 96.016 249.065 94.88 249.577 93.568C250.121 92.256 250.393 90.8 250.393 89.2C250.393 87.6 250.121 86.144 249.577 84.832C249.065 83.52 248.329 82.384 247.369 81.424C246.441 80.464 245.337 79.728 244.057 79.216C242.777 78.704 241.385 78.448 239.881 78.448C238.377 78.448 236.985 78.704 235.705 79.216C234.457 79.728 233.353 80.464 232.393 81.424C231.433 82.384 230.681 83.52 230.137 84.832C229.625 86.144 229.369 87.6 229.369 89.2C229.369 90.768 229.625 92.224 230.137 93.568C230.681 94.88 231.417 96.016 232.345 96.976C233.305 97.936 234.425 98.672 235.705 99.184C236.985 99.696 238.377 99.952 239.881 99.952ZM264.109 106V72.4H280.525C284.749 72.4 287.917 73.2 290.029 74.8C292.173 76.4 293.245 78.512 293.245 81.136C293.245 82.896 292.813 84.432 291.949 85.744C291.085 87.024 289.901 88.016 288.397 88.72C286.893 89.424 285.165 89.776 283.213 89.776L284.125 87.808C286.237 87.808 288.109 88.16 289.741 88.864C291.373 89.536 292.637 90.544 293.533 91.888C294.461 93.232 294.925 94.88 294.925 96.832C294.925 99.712 293.789 101.968 291.517 103.6C289.245 105.2 285.901 106 281.485 106H264.109ZM271.837 100.144H280.909C282.925 100.144 284.445 99.824 285.469 99.184C286.525 98.512 287.053 97.456 287.053 96.016C287.053 94.608 286.525 93.568 285.469 92.896C284.445 92.192 282.925 91.84 280.909 91.84H271.261V86.176H279.565C281.453 86.176 282.893 85.856 283.885 85.216C284.909 84.544 285.421 83.536 285.421 82.192C285.421 80.88 284.909 79.904 283.885 79.264C282.893 78.592 281.453 78.256 279.565 78.256H271.837V100.144ZM300.813 106V72.4H308.589V106H300.813ZM316.563 106V72.4H324.339V99.664H341.187V106H316.563ZM352.683 85.936H368.859V91.984H352.683V85.936ZM353.259 99.76H371.547V106H345.531V72.4H370.923V78.64H353.259V99.76ZM177.766 165V131.4H192.31C195.318 131.4 197.91 131.896 200.086 132.888C202.262 133.848 203.942 135.24 205.126 137.064C206.31 138.888 206.902 141.064 206.902 143.592C206.902 146.088 206.31 148.248 205.126 150.072C203.942 151.896 202.262 153.304 200.086 154.296C197.91 155.256 195.318 155.736 192.31 155.736H182.086L185.542 152.232V165H177.766ZM185.542 153.096L182.086 149.4H191.878C194.278 149.4 196.07 148.888 197.254 147.864C198.438 146.84 199.03 145.416 199.03 143.592C199.03 141.736 198.438 140.296 197.254 139.272C196.07 138.248 194.278 137.736 191.878 137.736H182.086L185.542 134.04V153.096ZM235.493 131.4H243.269V165H235.493V131.4ZM220.229 165H212.453V131.4H220.229V165ZM236.069 151.224H219.653V144.648H236.069V151.224ZM267.539 165.576C264.883 165.576 262.419 165.144 260.147 164.28C257.907 163.416 255.955 162.2 254.291 160.632C252.659 159.064 251.379 157.224 250.451 155.112C249.555 153 249.107 150.696 249.107 148.2C249.107 145.704 249.555 143.4 250.451 141.288C251.379 139.176 252.675 137.336 254.339 135.768C256.003 134.2 257.955 132.984 260.195 132.12C262.435 131.256 264.867 130.824 267.491 130.824C270.147 130.824 272.579 131.256 274.787 132.12C277.027 132.984 278.963 134.2 280.595 135.768C282.259 137.336 283.555 139.176 284.483 141.288C285.411 143.368 285.875 145.672 285.875 148.2C285.875 150.696 285.411 153.016 284.483 155.16C283.555 157.272 282.259 159.112 280.595 160.68C278.963 162.216 277.027 163.416 274.787 164.28C272.579 165.144 270.163 165.576 267.539 165.576ZM267.491 158.952C268.995 158.952 270.371 158.696 271.619 158.184C272.899 157.672 274.019 156.936 274.979 155.976C275.939 155.016 276.675 153.88 277.187 152.568C277.731 151.256 278.003 149.8 278.003 148.2C278.003 146.6 277.731 145.144 277.187 143.832C276.675 142.52 275.939 141.384 274.979 140.424C274.051 139.464 272.947 138.728 271.667 138.216C270.387 137.704 268.995 137.448 267.491 137.448C265.987 137.448 264.595 137.704 263.315 138.216C262.067 138.728 260.963 139.464 260.003 140.424C259.043 141.384 258.291 142.52 257.747 143.832C257.235 145.144 256.979 146.6 256.979 148.2C256.979 149.768 257.235 151.224 257.747 152.568C258.291 153.88 259.027 155.016 259.955 155.976C260.915 156.936 262.035 157.672 263.315 158.184C264.595 158.696 265.987 158.952 267.491 158.952ZM298.21 165V137.736H287.458V131.4H316.738V137.736H305.986V165H298.21ZM336.773 165.576C334.117 165.576 331.653 165.144 329.381 164.28C327.141 163.416 325.189 162.2 323.525 160.632C321.893 159.064 320.613 157.224 319.685 155.112C318.789 153 318.341 150.696 318.341 148.2C318.341 145.704 318.789 143.4 319.685 141.288C320.613 139.176 321.909 137.336 323.573 135.768C325.237 134.2 327.189 132.984 329.429 132.12C331.669 131.256 334.101 130.824 336.725 130.824C339.381 130.824 341.813 131.256 344.021 132.12C346.261 132.984 348.197 134.2 349.829 135.768C351.493 137.336 352.789 139.176 353.717 141.288C354.645 143.368 355.109 145.672 355.109 148.2C355.109 150.696 354.645 153.016 353.717 155.16C352.789 157.272 351.493 159.112 349.829 160.68C348.197 162.216 346.261 163.416 344.021 164.28C341.813 165.144 339.397 165.576 336.773 165.576ZM336.725 158.952C338.229 158.952 339.605 158.696 340.853 158.184C342.133 157.672 343.253 156.936 344.213 155.976C345.173 155.016 345.909 153.88 346.421 152.568C346.965 151.256 347.237 149.8 347.237 148.2C347.237 146.6 346.965 145.144 346.421 143.832C345.909 142.52 345.173 141.384 344.213 140.424C343.285 139.464 342.181 138.728 340.901 138.216C339.621 137.704 338.229 137.448 336.725 137.448C335.221 137.448 333.829 137.704 332.549 138.216C331.301 138.728 330.197 139.464 329.237 140.424C328.277 141.384 327.525 142.52 326.981 143.832C326.469 145.144 326.213 146.6 326.213 148.2C326.213 149.768 326.469 151.224 326.981 152.568C327.525 153.88 328.261 155.016 329.189 155.976C330.149 156.936 331.269 157.672 332.549 158.184C333.829 158.696 335.221 158.952 336.725 158.952ZM377.177 165.576C374.521 165.576 372.073 165.16 369.833 164.328C367.625 163.464 365.689 162.248 364.025 160.68C362.393 159.112 361.113 157.272 360.185 155.16C359.289 153.048 358.841 150.728 358.841 148.2C358.841 145.672 359.289 143.352 360.185 141.24C361.113 139.128 362.409 137.288 364.073 135.72C365.737 134.152 367.689 132.952 369.929 132.12C372.169 131.256 374.633 130.824 377.321 130.824C380.297 130.824 382.969 131.32 385.337 132.312C387.737 133.304 389.753 134.744 391.385 136.632L386.393 141.24C385.177 139.96 383.849 139.016 382.409 138.408C380.969 137.768 379.401 137.448 377.705 137.448C376.073 137.448 374.585 137.704 373.241 138.216C371.897 138.728 370.729 139.464 369.737 140.424C368.777 141.384 368.025 142.52 367.481 143.832C366.969 145.144 366.713 146.6 366.713 148.2C366.713 149.768 366.969 151.208 367.481 152.52C368.025 153.832 368.777 154.984 369.737 155.976C370.729 156.936 371.881 157.672 373.193 158.184C374.537 158.696 376.009 158.952 377.609 158.952C379.145 158.952 380.633 158.712 382.073 158.232C383.545 157.72 384.969 156.872 386.345 155.688L390.761 161.304C388.937 162.68 386.809 163.736 384.377 164.472C381.977 165.208 379.577 165.576 377.177 165.576ZM383.657 160.296V147.672H390.761V161.304L383.657 160.296ZM397.984 165V131.4H412.528C415.536 131.4 418.128 131.896 420.304 132.888C422.48 133.848 424.16 135.24 425.344 137.064C426.528 138.888 427.12 141.064 427.12 143.592C427.12 146.088 426.528 148.248 425.344 150.072C424.16 151.864 422.48 153.24 420.304 154.2C418.128 155.16 415.536 155.64 412.528 155.64H402.304L405.76 152.232V165H397.984ZM419.344 165L410.944 152.808H419.248L427.744 165H419.344ZM405.76 153.096L402.304 149.448H412.096C414.496 149.448 416.288 148.936 417.472 147.912C418.656 146.856 419.248 145.416 419.248 143.592C419.248 141.736 418.656 140.296 417.472 139.272C416.288 138.248 414.496 137.736 412.096 137.736H402.304L405.76 134.04V153.096ZM428.865 165L443.841 131.4H451.521L466.545 165H458.385L446.097 135.336H449.169L436.833 165H428.865ZM436.353 157.8L438.417 151.896H455.697L457.809 157.8H436.353ZM470.031 165V131.4H484.575C487.583 131.4 490.175 131.896 492.351 132.888C494.527 133.848 496.207 135.24 497.391 137.064C498.575 138.888 499.167 141.064 499.167 143.592C499.167 146.088 498.575 148.248 497.391 150.072C496.207 151.896 494.527 153.304 492.351 154.296C490.175 155.256 487.583 155.736 484.575 155.736H474.351L477.807 152.232V165H470.031ZM477.807 153.096L474.351 149.4H484.143C486.543 149.4 488.335 148.888 489.519 147.864C490.703 146.84 491.295 145.416 491.295 143.592C491.295 141.736 490.703 140.296 489.519 139.272C488.335 138.248 486.543 137.736 484.143 137.736H474.351L477.807 134.04V153.096ZM527.759 131.4H535.535V165H527.759V131.4ZM512.495 165H504.719V131.4H512.495V165ZM528.335 151.224H511.919V144.648H528.335V151.224ZM551.836 165V151.272L553.612 155.976L538.828 131.4H547.084L558.412 150.264H553.66L565.036 131.4H572.668L557.884 155.976L559.612 151.272V165H551.836Z" fill="black"/>
<g clip-path="url(#clip0_52_218)">
<path d="M119.72 10.8836C122.606 10.8836 125.375 12.0303 127.416 14.0714C129.457 16.1124 130.603 18.8807 130.603 21.7672V152.371C130.603 155.257 129.457 158.025 127.416 160.067C125.375 162.108 122.606 163.254 119.72 163.254H54.4181C51.5316 163.254 48.7633 162.108 46.7222 160.067C44.6812 158.025 43.5345 155.257 43.5345 152.371V21.7672C43.5345 18.8807 44.6812 16.1124 46.7222 14.0714C48.7633 12.0303 51.5316 10.8836 54.4181 10.8836H119.72ZM54.4181 0C48.6451 0 43.1085 2.29333 39.0264 6.37548C34.9442 10.4576 32.6509 15.9942 32.6509 21.7672V152.371C32.6509 158.144 34.9442 163.68 39.0264 167.762C43.1085 171.845 48.6451 174.138 54.4181 174.138H119.72C125.493 174.138 131.029 171.845 135.112 167.762C139.194 163.68 141.487 158.144 141.487 152.371V21.7672C141.487 15.9942 139.194 10.4576 135.112 6.37548C131.029 2.29333 125.493 0 119.72 0L54.4181 0Z" fill="#EBBDA5"/>
<path d="M87.0689 152.371C89.9554 152.371 92.7237 151.224 94.7648 149.183C96.8059 147.142 97.9525 144.374 97.9525 141.487C97.9525 138.601 96.8059 135.832 94.7648 133.791C92.7237 131.75 89.9554 130.603 87.0689 130.603C84.1824 130.603 81.4141 131.75 79.373 133.791C77.332 135.832 76.1853 138.601 76.1853 141.487C76.1853 144.374 77.332 147.142 79.373 149.183C81.4141 151.224 84.1824 152.371 87.0689 152.371Z" fill="#EBBDA5"/>
</g>
<defs>
<clipPath id="clip0_52_218">
<rect width="174.138" height="174.138" fill="white"/>
</clipPath>
</defs>
</svg>
