<svg width="185" height="52" viewBox="0 0 185 52" fill="none" xmlns="http://www.w3.org/2000/svg">
<mask id="mask0_4_81" style="mask-type:alpha" maskUnits="userSpaceOnUse" x="9" y="4" width="45" height="44">
<rect x="9.5" y="4" width="44" height="44" fill="#D9D9D9"/>
</mask>
<g mask="url(#mask0_4_81)">
<path d="M26 42.5V33.3334C24.1056 33.1806 22.2493 32.9667 20.4313 32.6917C18.6132 32.4167 16.8028 32.0195 15 31.5L15.9167 27.8334C18.4528 28.5361 21.0194 29.0174 23.6167 29.2771C26.2139 29.5368 28.8417 29.6667 31.5 29.6667C34.1278 29.6667 36.7403 29.5368 39.3375 29.2771C41.9347 29.0174 44.5167 28.5361 47.0833 27.8334L48 31.5C46.1667 32.0195 44.341 32.4167 42.5229 32.6917C40.7049 32.9667 38.8639 33.1806 37 33.3334V42.5H26ZM31.5 27.8334C30.4611 27.8334 29.5903 27.482 28.8875 26.7792C28.1847 26.0764 27.8333 25.2056 27.8333 24.1667C27.8333 23.1584 28.1847 22.2952 28.8875 21.5771C29.5903 20.859 30.4611 20.5 31.5 20.5C32.5083 20.5 33.3715 20.859 34.0896 21.5771C34.8076 22.2952 35.1667 23.1584 35.1667 24.1667C35.1667 25.2056 34.8076 26.0764 34.0896 26.7792C33.3715 27.482 32.5083 27.8334 31.5 27.8334ZM17.75 22.3334C16.9556 22.3334 16.2986 22.0736 15.7792 21.5542C15.2597 21.0347 15 20.3778 15 19.5834C15 18.8195 15.2597 18.1702 15.7792 17.6354C16.2986 17.1007 16.9556 16.8334 17.75 16.8334C18.5139 16.8334 19.1632 17.1007 19.6979 17.6354C20.2326 18.1702 20.5 18.8195 20.5 19.5834C20.5 20.3778 20.2326 21.0347 19.6979 21.5542C19.1632 22.0736 18.5139 22.3334 17.75 22.3334ZM45.25 22.3334C44.4556 22.3334 43.7986 22.0736 43.2792 21.5542C42.7597 21.0347 42.5 20.3778 42.5 19.5834C42.5 18.8195 42.7597 18.1702 43.2792 17.6354C43.7986 17.1007 44.4556 16.8334 45.25 16.8334C46.0139 16.8334 46.6632 17.1007 47.1979 17.6354C47.7326 18.1702 48 18.8195 48 19.5834C48 20.3778 47.7326 21.0347 47.1979 21.5542C46.6632 22.0736 46.0139 22.3334 45.25 22.3334ZM22.7917 15.4584C21.9972 15.4584 21.3403 15.1986 20.8208 14.6792C20.3014 14.1597 20.0417 13.5028 20.0417 12.7084C20.0417 11.9445 20.3014 11.2952 20.8208 10.7604C21.3403 10.2257 21.9972 9.95835 22.7917 9.95835C23.5556 9.95835 24.2049 10.2257 24.7396 10.7604C25.2743 11.2952 25.5417 11.9445 25.5417 12.7084C25.5417 13.5028 25.2743 14.1597 24.7396 14.6792C24.2049 15.1986 23.5556 15.4584 22.7917 15.4584ZM40.2083 15.4584C39.4139 15.4584 38.7569 15.1986 38.2375 14.6792C37.7181 14.1597 37.4583 13.5028 37.4583 12.7084C37.4583 11.9445 37.7181 11.2952 38.2375 10.7604C38.7569 10.2257 39.4139 9.95835 40.2083 9.95835C40.9722 9.95835 41.6215 10.2257 42.1563 10.7604C42.691 11.2952 42.9583 11.9445 42.9583 12.7084C42.9583 13.5028 42.691 14.1597 42.1563 14.6792C41.6215 15.1986 40.9722 15.4584 40.2083 15.4584ZM31.5 13.1667C30.7056 13.1667 30.0486 12.907 29.5292 12.3875C29.0097 11.8681 28.75 11.2111 28.75 10.4167C28.75 9.6528 29.0097 9.00349 29.5292 8.46877C30.0486 7.93405 30.7056 7.66669 31.5 7.66669C32.2639 7.66669 32.9132 7.93405 33.4479 8.46877C33.9826 9.00349 34.25 9.6528 34.25 10.4167C34.25 11.2111 33.9826 11.8681 33.4479 12.3875C32.9132 12.907 32.2639 13.1667 31.5 13.1667Z" fill="#FDE8CD"/>
</g>
<path d="M56.074 15.4H62.806C64.632 15.4 66.15 15.906 67.36 16.918C68.57 17.93 69.175 19.371 69.175 21.241C69.175 22.121 69.032 22.957 68.746 23.749C68.46 24.541 67.877 25.234 66.997 25.828L66.964 25.894V25.927C67.932 26.367 68.735 27.071 69.373 28.039C70.033 29.007 70.363 30.239 70.363 31.735C70.363 32.879 70.132 33.968 69.67 35.002C69.208 36.014 68.449 36.85 67.393 37.51C66.337 38.17 64.973 38.5 63.301 38.5H56.074V15.4ZM61.288 24.871C62.542 24.871 63.466 24.64 64.06 24.178C64.654 23.716 64.951 22.924 64.951 21.802C64.951 20.768 64.676 20.053 64.126 19.657C63.576 19.239 62.74 19.03 61.618 19.03H59.704V24.871H61.288ZM61.717 35.167C62.729 35.167 63.543 35.09 64.159 34.936C64.797 34.76 65.292 34.419 65.644 33.913C66.018 33.407 66.205 32.659 66.205 31.669C66.205 30.415 65.82 29.557 65.05 29.095C64.28 28.611 63.268 28.369 62.014 28.369H59.704V35.167H61.717ZM72.6892 36.85C72.6892 37.29 72.5242 37.675 72.1942 38.005C71.8642 38.335 71.4682 38.5 71.0062 38.5C70.5662 38.5 70.1812 38.335 69.8512 38.005C69.5212 37.675 69.3562 37.29 69.3562 36.85C69.3562 36.388 69.5212 35.992 69.8512 35.662C70.1812 35.332 70.5662 35.167 71.0062 35.167C71.4682 35.167 71.8642 35.332 72.1942 35.662C72.5242 35.992 72.6892 36.388 72.6892 36.85ZM88.1193 37.741C86.1613 38.467 84.3353 38.83 82.6413 38.83C80.7273 38.83 79.1763 38.324 77.9883 37.312C76.8003 36.3 76.2063 34.683 76.2063 32.461V21.868C76.2063 20.196 76.4373 18.931 76.8993 18.073C77.3833 17.215 78.1093 16.489 79.0773 15.895C80.0453 15.345 81.2333 15.07 82.6413 15.07C84.3573 15.07 85.9083 15.433 87.2943 16.159L86.2713 19.459C85.2593 19.085 84.1483 18.898 82.9383 18.898C82.0143 18.898 81.2663 19.151 80.6943 19.657C80.1223 20.163 79.8363 20.801 79.8363 21.571V32.395C79.8363 34.243 80.8703 35.167 82.9383 35.167C83.5983 35.167 84.2583 35.101 84.9183 34.969C85.5783 34.815 86.4583 34.595 87.5583 34.309L88.1193 37.741ZM90.221 21.967H93.587L93.851 22.099C94.753 21.791 95.6 21.637 96.392 21.637C96.942 21.637 97.745 21.747 98.801 21.967L99.461 22.099L98.603 25.63C97.987 25.322 97.382 25.168 96.788 25.168C95.974 25.168 95.281 25.421 94.709 25.927C94.137 26.411 93.851 27.06 93.851 27.874V38.5H90.221V21.967ZM103.983 33.583C103.983 34.199 104.148 34.683 104.478 35.035C104.83 35.365 105.336 35.53 105.996 35.53C107.008 35.53 108.361 35.09 110.055 34.21L111.375 37.345C110.583 37.851 109.681 38.236 108.669 38.5C107.657 38.764 106.645 38.896 105.633 38.896C104.005 38.896 102.707 38.5 101.739 37.708C100.793 36.894 100.32 35.684 100.32 34.078V27.313C100.32 25.531 100.87 24.145 101.97 23.155C103.092 22.165 104.566 21.67 106.392 21.67C108.218 21.67 109.637 22.165 110.649 23.155C111.683 24.123 112.2 25.476 112.2 27.214V32.23L103.983 32.659V33.583ZM108.537 27.28C108.537 26.62 108.328 26.114 107.91 25.762C107.492 25.41 106.975 25.234 106.359 25.234C105.523 25.234 104.918 25.454 104.544 25.894C104.17 26.334 103.983 26.818 103.983 27.346V29.326L108.537 29.029V27.28ZM127.4 38.5C125.024 38.742 123.308 38.863 122.252 38.863C119.942 38.863 118.105 38.434 116.741 37.576C115.377 36.718 114.695 35.167 114.695 32.923V30.184C114.695 28.006 115.454 26.543 116.972 25.795C117.698 25.443 118.523 25.267 119.447 25.267C120.261 25.267 121.064 25.377 121.856 25.597C122.648 25.817 123.286 26.059 123.77 26.323C123.77 25.509 123.44 24.959 122.78 24.673C122.12 24.365 121.273 24.211 120.239 24.211L120.536 21.703C122.648 21.703 124.199 22.044 125.189 22.726C126.201 23.386 126.817 24.178 127.037 25.102C127.279 26.026 127.4 27.214 127.4 28.666V38.5ZM123.77 30.184C123.374 29.898 122.813 29.634 122.087 29.392C121.383 29.128 120.734 28.996 120.14 28.996C119.612 28.996 119.183 29.128 118.853 29.392C118.523 29.656 118.358 30.074 118.358 30.646V32.461C118.358 34.463 119.535 35.464 121.889 35.464C122.571 35.464 123.198 35.409 123.77 35.299V30.184ZM135.7 38.929C132.356 38.863 130.684 37.268 130.684 34.144V15.4H134.38V21.967H137.515L136.723 25.366H134.38V34.144C134.38 34.892 134.589 35.398 135.007 35.662C135.425 35.904 136.019 36.025 136.789 36.025L135.7 38.929ZM142.842 18.964C142.314 18.964 141.852 18.766 141.456 18.37C141.06 17.974 140.862 17.512 140.862 16.984C140.862 16.478 141.06 16.038 141.456 15.664C141.852 15.268 142.314 15.07 142.842 15.07C143.348 15.07 143.788 15.268 144.162 15.664C144.558 16.038 144.756 16.478 144.756 16.984C144.756 17.512 144.558 17.974 144.162 18.37C143.788 18.766 143.348 18.964 142.842 18.964ZM140.928 21.967H144.558V38.5H140.928V21.967ZM147.16 21.967H151.12L154.189 32.065L157.192 21.967H161.119L155.938 38.5H152.44L147.16 21.967ZM165.407 33.583C165.407 34.199 165.572 34.683 165.902 35.035C166.254 35.365 166.76 35.53 167.42 35.53C168.432 35.53 169.785 35.09 171.479 34.21L172.799 37.345C172.007 37.851 171.105 38.236 170.093 38.5C169.081 38.764 168.069 38.896 167.057 38.896C165.429 38.896 164.131 38.5 163.163 37.708C162.217 36.894 161.744 35.684 161.744 34.078V27.313C161.744 25.531 162.294 24.145 163.394 23.155C164.516 22.165 165.99 21.67 167.816 21.67C169.642 21.67 171.061 22.165 172.073 23.155C173.107 24.123 173.624 25.476 173.624 27.214V32.23L165.407 32.659V33.583ZM169.961 27.28C169.961 26.62 169.752 26.114 169.334 25.762C168.916 25.41 168.399 25.234 167.783 25.234C166.947 25.234 166.342 25.454 165.968 25.894C165.594 26.334 165.407 26.818 165.407 27.346V29.326L169.961 29.029V27.28Z" fill="#FDE8CD"/>
<rect x="2.16667" y="2.16667" width="180.667" height="47.6667" stroke="#FDE8CD" stroke-width="3.66667" stroke-linejoin="round"/>
</svg>
